<svg id="Group_5430" data-name="Group 5430" xmlns="http://www.w3.org/2000/svg" viewBox="0 0 14.4 16">
  <defs>
    <style>
      .cls-1 {
        fill: #eed11a;
      }
    </style>
  </defs>
  <path id="Path_2602" data-name="Path 2602" class="cls-1" d="M16.6,26.8a.6.6,0,0,0,.6-.6V20.6a.6.6,0,1,0-1.2,0v5.6A.6.6,0,0,0,16.6,26.8Z" transform="translate(-12 -13.6)"/>
  <path id="Path_2603" data-name="Path 2603" class="cls-1" d="M23.1,26.8a.6.6,0,0,0,.6-.6V20.6a.6.6,0,1,0-1.2,0v5.6A.6.6,0,0,0,23.1,26.8Z" transform="translate(-15.9 -13.6)"/>
  <path id="Path_2604" data-name="Path 2604" class="cls-1" d="M29.6,26.8a.6.6,0,0,0,.6-.6V20.6a.6.6,0,0,0-1.2,0v5.6A.6.6,0,0,0,29.6,26.8Z" transform="translate(-19.8 -13.6)"/>
  <path id="Path_2605" data-name="Path 2605" class="cls-1" d="M19.2,5.2H14.4a1.2,1.2,0,1,0-2.4,0H7.2A1.2,1.2,0,0,0,6,6.4V7.6A1.2,1.2,0,0,0,7.2,8.8v8.8A2.4,2.4,0,0,0,9.6,20h7.2a2.4,2.4,0,0,0,2.4-2.4V8.8a1.2,1.2,0,0,0,1.2-1.2V6.4A1.2,1.2,0,0,0,19.2,5.2ZM18,17.6a1.2,1.2,0,0,1-1.2,1.2H9.6a1.2,1.2,0,0,1-1.2-1.2V8.8H18ZM19.2,7.2a.4.4,0,0,1-.4.4H7.6a.4.4,0,0,1-.4-.4V6.8a.4.4,0,0,1,.4-.4H18.8a.4.4,0,0,1,.4.4Z" transform="translate(-6 -4)"/>
</svg>
