<svg xmlns="http://www.w3.org/2000/svg" viewBox="0 0 12.538 12">
  <defs>
    <style>
      .cls-1 {
        fill: #eed11a;
      }
    </style>
  </defs>
  <path id="Path_1777" data-name="Path 1777" class="cls-1" d="M18.739,9.341a.627.627,0,0,0-.5-.429l-3.571-.534-1.6-3.243a.627.627,0,0,0-1.124,0l-1.6,3.243-3.571.534a.627.627,0,0,0-.344,1.07l2.583,2.5L8.39,16.053a.627.627,0,0,0,.91.661l3.2-1.683,3.2,1.683a.627.627,0,0,0,.909-.661l-.616-3.569,2.583-2.5A.627.627,0,0,0,18.739,9.341Z" transform="translate(-6.231 -4.786)"/>
</svg>
