<svg xmlns="http://www.w3.org/2000/svg" viewBox="0 0 13.217 14.3">
  <defs>
    <style>
      .cls-1 {
        fill: #595555;
        stroke: #595555;
        stroke-width: 0.3px;
      }
    </style>
  </defs>
  <g id="noun_Toilet_894216" transform="translate(0.15 0.15)">
    <path id="Path_2079" data-name="Path 2079" class="cls-1" d="M16.97,7.956H8.022V1.547A.45.45,0,0,0,7.574,1.1H4.947a.45.45,0,0,0-.447.447V8.389a2.168,2.168,0,0,0,1.313,1.963v4.3a.45.45,0,0,0,.447.447h6.625a.45.45,0,0,0,.447-.447V12.921A4.542,4.542,0,0,0,17.418,8.4.441.441,0,0,0,16.97,7.956ZM5.395,1.995H7.127V7.884H5.395ZM12.871,12.04a.45.45,0,0,0-.447.447V14.22H6.708V9.991a.45.45,0,0,0-.447-.447c-.318,0-.621-.332-.765-.707H16.508A3.676,3.676,0,0,1,12.871,12.04Z" transform="translate(-4.5 -1.1)"/>
  </g>
</svg>
