<svg xmlns="http://www.w3.org/2000/svg" viewBox="0 0 16 16">
  <defs>
    <style>
      .cls-1 {
        fill: #bebcbe;
      }
    </style>
  </defs>
  <g id="Group_5379" data-name="Group 5379" transform="translate(-4 -4)">
    <path id="Path_2601" data-name="Path 2601" class="cls-1" d="M17.6,5.2H16V4.6a.6.6,0,1,0-1.2,0v.6H9.2V4.6A.6.6,0,0,0,8,4.6v.6H6.4A2.4,2.4,0,0,0,4,7.6v10A2.4,2.4,0,0,0,6.4,20H17.6A2.4,2.4,0,0,0,20,17.6V7.6A2.4,2.4,0,0,0,17.6,5.2ZM6.4,6.4H8V7A.6.6,0,0,0,9.2,7V6.4h5.6V7A.6.6,0,0,0,16,7V6.4h1.6a1.2,1.2,0,0,1,1.2,1.2V8.8H5.2V7.6A1.2,1.2,0,0,1,6.4,6.4ZM17.6,18.8H6.4a1.2,1.2,0,0,1-1.2-1.2V10H18.8v7.6A1.2,1.2,0,0,1,17.6,18.8Z"/>
  </g>
</svg>
