<svg xmlns="http://www.w3.org/2000/svg" viewBox="0 0 14.547 16">
  <defs>
    <style>
      .cls-1 {
        fill: #595555;
      }
    </style>
  </defs>
  <g id="Group_5404" data-name="Group 5404" transform="translate(0 0)">
    <path id="Path_2611" data-name="Path 2611" class="cls-1" d="M19.334,9.511v-2.4a1.239,1.239,0,0,0-1.212-1.263h0A1.239,1.239,0,0,0,16.91,7.106V7.4L14.829,5.591a2.35,2.35,0,0,0-3.111,0l-5.281,4.6A1.285,1.285,0,0,0,6,11.157v7.318A2.477,2.477,0,0,0,8.424,21h2.02a1.239,1.239,0,0,0,1.212-1.263V16.791a1.651,1.651,0,0,1,1.616-1.684h0a1.651,1.651,0,0,1,1.616,1.684v2.948A1.239,1.239,0,0,0,16.1,21h2.02a2.477,2.477,0,0,0,2.424-2.526V11.157a1.285,1.285,0,0,0-.436-.968ZM18.122,19.739H16.506a.413.413,0,0,1-.4-.421V16.791a2.89,2.89,0,0,0-2.829-2.948h0a2.89,2.89,0,0,0-2.829,2.948v2.526a.413.413,0,0,1-.4.421H8.424a1.239,1.239,0,0,1-1.212-1.263v-7.12a.428.428,0,0,1,.145-.324l5.136-4.472a1.175,1.175,0,0,1,1.56,0l5.136,4.472a.428.428,0,0,1,.145.324v7.12A1.239,1.239,0,0,1,18.122,19.739Z" transform="translate(-6 -5.002)"/>
  </g>
</svg>
