<svg id="Group_5371" data-name="Group 5371" xmlns="http://www.w3.org/2000/svg" viewBox="0 0 16 16">
  <defs>
    <style>
      .cls-1 {
        fill: #eed11a;
      }
    </style>
  </defs>
  <path id="Path_2606" data-name="Path 2606" class="cls-1" d="M22.586,9.409l-2-2a1.412,1.412,0,0,0-1-.414H9.824A2.824,2.824,0,0,0,7,9.824V20.176A2.824,2.824,0,0,0,9.824,23H20.176A2.824,2.824,0,0,0,23,20.176V10.407A1.412,1.412,0,0,0,22.586,9.409Zm-3.821-1v2.2a.151.151,0,0,1-.151.151H17.353V8.412Zm-4.235,0v2.353H11.386a.151.151,0,0,1-.151-.151v-2.2ZM11.235,21.588V15.941h7.529v5.647Zm10.353-1.412a1.412,1.412,0,0,1-1.412,1.412V15.941a1.412,1.412,0,0,0-1.412-1.412H11.235a1.412,1.412,0,0,0-1.412,1.412v5.647a1.412,1.412,0,0,1-1.412-1.412V9.824A1.412,1.412,0,0,1,9.824,8.412v2.2a1.562,1.562,0,0,0,1.562,1.562h7.228a1.562,1.562,0,0,0,1.562-1.562V9l1.412,1.412Z" transform="translate(-7 -7)"/>
</svg>
