<svg id="_" data-name="" xmlns="http://www.w3.org/2000/svg" viewBox="0 0 17.508 17.508">
  <defs>
    <style>
      .cls-1 {
        fill: none;
      }

      .cls-2 {
        fill: #595555;
      }
    </style>
  </defs>
  <path id="_2" data-name="" class="cls-1" d="M9.627,17.508H7.881c-.829,0-1.793,0-2.739-.059a5.168,5.168,0,0,1-3.67-1.412A5.17,5.17,0,0,1,.059,12.366C0,11.3,0,10.23,0,9.192V8.317C0,7.278,0,6.2.059,5.142a5.167,5.167,0,0,1,1.413-3.67A5.167,5.167,0,0,1,5.142.059C6.088,0,7.052,0,7.881,0H9.627c.829,0,1.792,0,2.739.059a5.17,5.17,0,0,1,3.671,1.413,5.168,5.168,0,0,1,1.412,3.67c.061,1.061.06,2.136.059,3.175v.874c0,1.039,0,2.113-.059,3.174a5.17,5.17,0,0,1-1.412,3.671,5.17,5.17,0,0,1-3.671,1.412C11.419,17.5,10.456,17.508,9.627,17.508Zm-.873-1.575c.18,0,.389,0,.619,0,.279,0,.589,0,.914,0a12.394,12.394,0,0,0,3.629-.362,2.971,2.971,0,0,0,1.664-1.664,15.764,15.764,0,0,0,.358-4.542c0-.23,0-.44,0-.619s0-.389,0-.619a15.776,15.776,0,0,0-.358-4.544,2.971,2.971,0,0,0-1.664-1.664,12.5,12.5,0,0,0-3.643-.362c-.227,0-.446,0-.653,0l-.253,0H9.353c-.222,0-.424,0-.6,0s-.378,0-.6,0H8.14l-.25,0c-.21,0-.428,0-.654,0a12.511,12.511,0,0,0-3.644.362A2.971,2.971,0,0,0,1.928,3.591,15.782,15.782,0,0,0,1.57,8.11v.032c0,.227,0,.435,0,.613s0,.384,0,.613V9.4a15.774,15.774,0,0,0,.358,4.517A2.971,2.971,0,0,0,3.591,15.58a12.4,12.4,0,0,0,3.63.362c.325,0,.633,0,.914,0C8.365,15.935,8.575,15.933,8.755,15.933Zm0-2.69a4.49,4.49,0,1,1,4.489-4.489A4.495,4.495,0,0,1,8.755,13.243Zm0-7.407a2.917,2.917,0,1,0,2.916,2.918A2.921,2.921,0,0,0,8.755,5.837Zm4.672-.707a1.049,1.049,0,1,1,1.049-1.048A1.049,1.049,0,0,1,13.426,5.129Z" transform="translate(0 0)"/>
  <path id="_3" data-name="" class="cls-2" d="M9.627,17.508H7.881c-.829,0-1.793,0-2.739-.059a5.168,5.168,0,0,1-3.67-1.412A5.17,5.17,0,0,1,.059,12.366C0,11.3,0,10.23,0,9.192V8.317C0,7.278,0,6.2.059,5.142a5.167,5.167,0,0,1,1.413-3.67A5.167,5.167,0,0,1,5.142.059C6.088,0,7.052,0,7.881,0H9.627c.829,0,1.792,0,2.739.059a5.17,5.17,0,0,1,3.671,1.413,5.168,5.168,0,0,1,1.412,3.67c.061,1.061.06,2.136.059,3.175v.874c0,1.039,0,2.113-.059,3.174a5.17,5.17,0,0,1-1.412,3.671,5.17,5.17,0,0,1-3.671,1.412C11.419,17.5,10.456,17.508,9.627,17.508Zm-.873-1.575c.18,0,.389,0,.619,0,.279,0,.589,0,.914,0a12.394,12.394,0,0,0,3.629-.362,2.971,2.971,0,0,0,1.664-1.664,15.764,15.764,0,0,0,.358-4.542c0-.23,0-.44,0-.619s0-.389,0-.619a15.776,15.776,0,0,0-.358-4.544,2.971,2.971,0,0,0-1.664-1.664,12.5,12.5,0,0,0-3.643-.362c-.227,0-.446,0-.653,0l-.253,0H9.353c-.222,0-.424,0-.6,0s-.378,0-.6,0H8.14l-.25,0c-.21,0-.428,0-.654,0a12.511,12.511,0,0,0-3.644.362A2.971,2.971,0,0,0,1.928,3.591,15.782,15.782,0,0,0,1.57,8.11v.032c0,.227,0,.435,0,.613s0,.384,0,.613V9.4a15.774,15.774,0,0,0,.358,4.517A2.971,2.971,0,0,0,3.591,15.58a12.4,12.4,0,0,0,3.63.362c.325,0,.633,0,.914,0C8.365,15.935,8.575,15.933,8.755,15.933Zm0-2.69a4.49,4.49,0,1,1,4.489-4.489A4.495,4.495,0,0,1,8.755,13.243Zm0-7.407a2.917,2.917,0,1,0,2.916,2.918A2.921,2.921,0,0,0,8.755,5.837Zm4.672-.707a1.049,1.049,0,1,1,1.049-1.048A1.049,1.049,0,0,1,13.426,5.129Z" transform="translate(0 0)"/>
</svg>
