<svg xmlns="http://www.w3.org/2000/svg" viewBox="0 0 459.397 144.747">
  <defs>
    <style>
      .cls-1 {
        fill: #fee008;
      }
    </style>
  </defs>
  <g id="Group_5189" data-name="Group 5189" transform="translate(467.397 154.399) rotate(180)">
    <path id="Path_2090" data-name="Path 2090" class="cls-1" d="M432.017,41.816c-10.078,0-15.275,4.462-19.863,8.4-4.238,3.641-7.907,6.793-15.516,6.793s-11.273-3.153-15.51-6.793c-4.582-3.939-9.768-8.4-19.846-8.4-10.061,0-15.252,4.462-19.829,8.4-4.232,3.641-7.9,6.793-15.493,6.793s-11.267-3.153-15.5-6.793c-4.588-3.939-9.774-8.4-19.84-8.4s-15.258,4.462-19.834,8.4c-4.244,3.641-7.9,6.793-15.5,6.793s-11.267-3.153-15.5-6.793c-4.577-3.939-9.762-8.4-19.829-8.4s-15.258,4.462-19.84,8.4c-4.238,3.641-7.9,6.793-15.5,6.793s-11.255-3.153-15.493-6.793c-4.577-3.939-9.768-8.4-19.829-8.4s-15.246,4.462-19.817,8.4c-4.232,3.641-7.89,6.793-15.482,6.793S102.733,53.858,98.5,50.217c-4.577-3.939-9.768-8.4-19.834-8.4s-15.252,4.462-19.834,8.4c-4.238,3.641-7.9,6.793-15.493,6.793s-11.261-3.153-15.5-6.793c-4.582-3.934-9.768-8.4-19.834-8.4v6.65c7.6,0,11.255,3.153,15.493,6.793,4.577,3.939,9.768,8.4,19.834,8.4s15.252-4.462,19.834-8.4c4.238-3.641,7.9-6.793,15.493-6.793s11.255,3.153,15.493,6.793c4.577,3.939,9.768,8.4,19.834,8.4s15.24-4.462,19.817-8.4c4.232-3.641,7.89-6.793,15.482-6.793s11.255,3.153,15.493,6.793c4.577,3.939,9.768,8.4,19.829,8.4s15.252-4.462,19.834-8.4c4.238-3.641,7.9-6.793,15.5-6.793s11.261,3.153,15.493,6.793c4.577,3.939,9.774,8.4,19.834,8.4s15.264-4.462,19.84-8.4c4.238-3.641,7.9-6.793,15.5-6.793s11.261,3.153,15.5,6.793c4.588,3.939,9.774,8.4,19.846,8.4s15.252-4.462,19.834-8.4c4.232-3.641,7.9-6.793,15.487-6.793s11.272,3.153,15.51,6.793c4.582,3.939,9.768,8.4,19.846,8.4s15.269-4.462,19.846-8.4c4.249-3.641,7.919-6.793,15.533-6.793s11.284,3.153,15.522,6.793c4.588,3.939,9.785,8.4,19.863,8.4v-6.65c-7.609,0-11.278-3.153-15.522-6.793C447.292,46.284,442.1,41.816,432.017,41.816Z" transform="translate(0 -32.164)"/>
    <path id="Path_2092" data-name="Path 2092" class="cls-1" d="M432.017,54.663c-10.078,0-15.275,4.462-19.863,8.4-4.238,3.646-7.907,6.788-15.516,6.788s-11.273-3.141-15.51-6.788c-4.582-3.939-9.768-8.4-19.846-8.4-10.061,0-15.252,4.462-19.829,8.4-4.232,3.646-7.9,6.788-15.493,6.788s-11.267-3.141-15.5-6.788c-4.588-3.939-9.774-8.4-19.84-8.4s-15.258,4.462-19.834,8.4c-4.244,3.646-7.9,6.788-15.5,6.788s-11.267-3.141-15.5-6.788c-4.577-3.939-9.762-8.4-19.829-8.4s-15.258,4.462-19.84,8.4c-4.238,3.646-7.9,6.788-15.5,6.788s-11.255-3.141-15.493-6.788c-4.577-3.939-9.768-8.4-19.829-8.4s-15.246,4.462-19.817,8.4c-4.232,3.646-7.89,6.788-15.482,6.788S102.733,66.711,98.5,63.064c-4.577-3.939-9.768-8.4-19.834-8.4s-15.252,4.462-19.834,8.4c-4.238,3.646-7.9,6.788-15.493,6.788s-11.261-3.141-15.5-6.788c-4.582-3.939-9.768-8.4-19.834-8.4v6.65c7.6,0,11.255,3.153,15.493,6.8,4.577,3.928,9.768,8.39,19.834,8.39s15.252-4.462,19.834-8.39c4.238-3.646,7.9-6.8,15.493-6.8s11.255,3.153,15.493,6.8c4.577,3.928,9.768,8.39,19.834,8.39s15.24-4.462,19.817-8.39c4.232-3.646,7.89-6.8,15.482-6.8s11.255,3.153,15.493,6.8c4.577,3.928,9.768,8.39,19.829,8.39s15.252-4.462,19.834-8.39c4.238-3.646,7.9-6.8,15.5-6.8s11.261,3.153,15.493,6.8c4.577,3.928,9.774,8.39,19.834,8.39s15.264-4.462,19.84-8.39c4.238-3.646,7.9-6.8,15.5-6.8s11.261,3.153,15.5,6.8c4.588,3.928,9.774,8.39,19.846,8.39s15.252-4.462,19.834-8.39c4.232-3.646,7.9-6.8,15.487-6.8s11.272,3.153,15.51,6.8c4.582,3.928,9.768,8.39,19.846,8.39s15.269-4.462,19.846-8.39c4.249-3.646,7.919-6.8,15.533-6.8s11.284,3.153,15.522,6.8c4.582,3.928,9.779,8.39,19.857,8.39v-6.65c-7.609,0-11.278-3.141-15.522-6.788C447.292,59.125,442.1,54.663,432.017,54.663Z" transform="translate(0 77.897)"/>
    <path id="Path_2093" data-name="Path 2093" class="cls-1" d="M432.017,50.381c-10.078,0-15.275,4.462-19.863,8.4-4.238,3.641-7.907,6.793-15.516,6.793s-11.273-3.153-15.51-6.793c-4.582-3.939-9.768-8.4-19.846-8.4-10.061,0-15.252,4.462-19.829,8.4-4.232,3.641-7.9,6.793-15.493,6.793s-11.267-3.153-15.5-6.793c-4.588-3.939-9.774-8.4-19.84-8.4s-15.258,4.462-19.834,8.4c-4.244,3.641-7.9,6.793-15.5,6.793s-11.267-3.153-15.5-6.793c-4.577-3.939-9.762-8.4-19.829-8.4s-15.258,4.462-19.84,8.4c-4.238,3.641-7.9,6.793-15.5,6.793s-11.255-3.153-15.493-6.793c-4.577-3.939-9.768-8.4-19.829-8.4s-15.246,4.462-19.817,8.4c-4.232,3.641-7.89,6.793-15.482,6.793S102.733,62.423,98.5,58.782c-4.577-3.939-9.768-8.4-19.834-8.4s-15.252,4.462-19.834,8.4c-4.238,3.641-7.9,6.793-15.493,6.793s-11.261-3.153-15.5-6.793c-4.582-3.939-9.768-8.4-19.834-8.4v6.65c7.6,0,11.255,3.153,15.493,6.793,4.577,3.939,9.768,8.4,19.834,8.4s15.252-4.462,19.834-8.4c4.238-3.641,7.9-6.793,15.493-6.793s11.255,3.153,15.493,6.793c4.577,3.939,9.768,8.4,19.834,8.4s15.24-4.462,19.817-8.4c4.232-3.641,7.89-6.793,15.482-6.793s11.255,3.153,15.493,6.793c4.577,3.939,9.768,8.4,19.829,8.4s15.252-4.462,19.834-8.4c4.238-3.641,7.9-6.793,15.5-6.793s11.261,3.153,15.493,6.793c4.577,3.939,9.774,8.4,19.834,8.4s15.264-4.462,19.84-8.4c4.238-3.641,7.9-6.793,15.5-6.793s11.261,3.153,15.5,6.793c4.588,3.939,9.774,8.4,19.846,8.4s15.252-4.462,19.834-8.4c4.232-3.641,7.9-6.793,15.487-6.793s11.272,3.153,15.51,6.793c4.582,3.939,9.768,8.4,19.846,8.4s15.269-4.462,19.846-8.4c4.249-3.641,7.919-6.793,15.533-6.793s11.284,3.153,15.522,6.793c4.582,3.939,9.779,8.4,19.857,8.4v-6.65c-7.609,0-11.278-3.153-15.522-6.793C447.292,54.843,442.1,50.381,432.017,50.381Z" transform="translate(0 41.206)"/>
    <path id="Path_2094" data-name="Path 2094" class="cls-1" d="M432.017,46.1c-10.078,0-15.275,4.456-19.863,8.4-4.238,3.646-7.907,6.793-15.516,6.793s-11.273-3.147-15.51-6.793c-4.582-3.939-9.768-8.4-19.846-8.4a30.188,30.188,0,0,0-3.555.2c-7.793.9-12.272,4.749-16.274,8.2-4.232,3.641-7.9,6.788-15.493,6.788s-11.267-3.147-15.5-6.793c-4.588-3.939-9.774-8.4-19.84-8.4s-15.258,4.456-19.834,8.4c-4.244,3.646-7.9,6.793-15.5,6.793s-11.267-3.147-15.5-6.793c-4.577-3.939-9.762-8.4-19.829-8.4a30.188,30.188,0,0,0-3.555.2c-7.8.9-12.272,4.749-16.28,8.2-4.238,3.641-7.9,6.788-15.5,6.788S173.36,58.141,169.122,54.5c-4.008-3.451-8.482-7.3-16.274-8.2a31.532,31.532,0,0,0-7.109,0c-7.793.9-12.266,4.749-16.268,8.2-4.232,3.641-7.89,6.788-15.482,6.788S102.733,58.141,98.5,54.5c-4.008-3.451-8.482-7.3-16.28-8.2a31.532,31.532,0,0,0-7.109,0c-7.8.9-12.272,4.749-16.274,8.2-4.238,3.641-7.9,6.788-15.493,6.788s-11.261-3.147-15.5-6.793C23.252,50.555,18.067,46.1,8,46.1v6.65c7.6,0,11.255,3.153,15.493,6.8a52.283,52.283,0,0,0,5.633,4.381,24.241,24.241,0,0,0,10.647,3.807,31.533,31.533,0,0,0,7.109,0,24.241,24.241,0,0,0,10.647-3.807,51.571,51.571,0,0,0,5.633-4.381c4.238-3.646,7.9-6.8,15.493-6.8s11.255,3.153,15.493,6.8a52.285,52.285,0,0,0,5.633,4.381,24.214,24.214,0,0,0,10.647,3.807,31.533,31.533,0,0,0,7.109,0,24.19,24.19,0,0,0,10.635-3.807,50.941,50.941,0,0,0,5.628-4.381c4.232-3.646,7.89-6.8,15.482-6.8s11.255,3.153,15.493,6.8a52.285,52.285,0,0,0,5.633,4.381,24.241,24.241,0,0,0,10.646,3.807,31.533,31.533,0,0,0,7.109,0,24.9,24.9,0,0,0,12.668-5.22c1.286-.97,2.469-1.987,3.612-2.969,4.238-3.646,7.9-6.8,15.5-6.8s11.261,3.153,15.493,6.8a52.284,52.284,0,0,0,5.633,4.381,24.3,24.3,0,0,0,10.647,3.807,31.533,31.533,0,0,0,7.109,0,24.854,24.854,0,0,0,12.668-5.22c1.292-.97,2.475-1.987,3.618-2.969,4.238-3.646,7.9-6.8,15.5-6.8s11.261,3.153,15.5,6.8a52.952,52.952,0,0,0,5.639,4.381A24.24,24.24,0,0,0,322.4,67.737a31.532,31.532,0,0,0,7.109,0,24.268,24.268,0,0,0,10.647-3.807,51.029,51.029,0,0,0,5.633-4.381c4.232-3.646,7.9-6.8,15.487-6.8s11.272,3.153,15.51,6.8c1.143.982,2.326,2,3.618,2.969a24.875,24.875,0,0,0,12.674,5.22,31.584,31.584,0,0,0,7.115,0,24.854,24.854,0,0,0,12.668-5.22c1.292-.97,2.475-1.987,3.618-2.969,4.249-3.646,7.919-6.8,15.533-6.8s11.284,3.153,15.522,6.8c1.143.982,2.326,2,3.618,2.969a24.94,24.94,0,0,0,12.679,5.22,30.215,30.215,0,0,0,3.56.2v-6.65c-7.609,0-11.278-3.147-15.522-6.793C447.292,50.555,442.1,46.1,432.017,46.1Z" transform="translate(0 4.526)"/>
  </g>
</svg>
