<svg xmlns="http://www.w3.org/2000/svg" xmlns:xlink="http://www.w3.org/1999/xlink" viewBox="0 0 39.549 98">
  <defs>
    <style>
      .cls-1 {
        fill: #fff;
      }

      .cls-2 {
        clip-path: url(#clip-path);
      }

      .cls-3 {
        fill: #ffc851;
      }
    </style>
    <clipPath id="clip-path">
      <rect id="Rectangle_2" data-name="Rectangle 2" class="cls-1" width="39.549" height="98" transform="translate(283 280)"/>
    </clipPath>
  </defs>
  <g id="Mask_Group_2" data-name="Mask Group 2" class="cls-2" transform="translate(-283 -280)">
    <g id="Group_3495" data-name="Group 3495" transform="translate(266.011 356.78) rotate(-90)">
      <g id="Group_3494" data-name="Group 3494" transform="translate(0 255) rotate(-90)">
        <path id="Path_2095" data-name="Path 2095" class="cls-3" d="M235.365,0c-5.594,0-8.479,2.477-11.026,4.663-2.352,2.024-4.389,3.768-8.613,3.768s-6.257-1.744-8.61-3.768C204.573,2.477,201.7,0,196.1,0s-8.466,2.477-11.007,4.663c-2.349,2.024-4.383,3.768-8.6,3.768s-6.254-1.744-8.606-3.768C165.341,2.477,162.463,0,156.875,0s-8.469,2.477-11.01,4.663c-2.356,2.024-4.386,3.768-8.606,3.768s-6.254-1.744-8.6-3.768C126.115,2.477,123.237,0,117.649,0s-8.469,2.477-11.013,4.663c-2.352,2.024-4.383,3.768-8.6,3.768s-6.248-1.744-8.6-3.768C86.892,2.477,84.011,0,78.426,0s-8.463,2.477-11,4.663c-2.349,2.024-4.38,3.768-8.594,3.768s-6.248-1.744-8.6-3.768C47.692,2.477,44.81,0,39.223,0s-8.466,2.477-11.01,4.663c-2.352,2.024-4.383,3.768-8.6,3.768s-6.251-1.744-8.6-3.768C8.466,2.477,5.588,0,0,0V3.691c4.217,0,6.248,1.75,8.6,3.774,2.54,2.18,5.422,4.657,11.01,4.657s8.466-2.477,11.01-4.657C32.972,5.441,35,3.691,39.22,3.691s6.248,1.75,8.6,3.774c2.54,2.18,5.422,4.657,11.01,4.657s8.46-2.477,11-4.657c2.349-2.024,4.38-3.774,8.594-3.774s6.248,1.75,8.6,3.774c2.54,2.18,5.422,4.657,11.007,4.657s8.466-2.477,11.01-4.657c2.352-2.024,4.386-3.774,8.606-3.774s6.251,1.75,8.6,3.774c2.54,2.18,5.425,4.657,11.01,4.657s8.473-2.477,11.013-4.657c2.352-2.024,4.383-3.774,8.6-3.774s6.251,1.75,8.6,3.774c2.547,2.18,5.425,4.657,11.016,4.657s8.466-2.477,11.01-4.657c2.349-2.024,4.383-3.774,8.6-3.774s6.257,1.75,8.61,3.774c2.544,2.18,5.422,4.657,11.016,4.657S224.2,9.646,226.74,7.465c2.359-2.024,4.4-3.774,8.622-3.774s6.264,1.75,8.616,3.774c2.544,2.18,5.428,4.657,11.023,4.657V8.431c-4.223,0-6.26-1.744-8.616-3.768C243.844,2.477,240.962,0,235.365,0Z" transform="translate(0 45.481)"/>
        <path id="Path_2096" data-name="Path 2096" class="cls-3" d="M235.365,0c-5.594,0-8.479,2.477-11.026,4.663-2.352,2.021-4.389,3.771-8.613,3.771s-6.257-1.75-8.61-3.771C204.573,2.477,201.7,0,196.1,0s-8.466,2.477-11.007,4.663c-2.349,2.021-4.383,3.771-8.6,3.771s-6.254-1.75-8.606-3.771C165.341,2.477,162.463,0,156.875,0s-8.469,2.477-11.01,4.663c-2.356,2.021-4.386,3.771-8.606,3.771s-6.254-1.75-8.6-3.771C126.115,2.477,123.237,0,117.649,0s-8.469,2.477-11.013,4.663c-2.352,2.021-4.383,3.771-8.6,3.771s-6.248-1.75-8.6-3.771C86.892,2.477,84.011,0,78.426,0s-8.463,2.477-11,4.663c-2.349,2.021-4.38,3.771-8.594,3.771s-6.248-1.75-8.6-3.771C47.692,2.477,44.81,0,39.223,0s-8.466,2.477-11.01,4.663c-2.352,2.021-4.383,3.771-8.6,3.771s-6.251-1.75-8.6-3.771C8.466,2.477,5.588,0,0,0V3.691c4.217,0,6.248,1.75,8.6,3.771,2.54,2.187,5.422,4.663,11.01,4.663s8.466-2.477,11.01-4.663C32.972,5.441,35,3.691,39.22,3.691s6.248,1.75,8.6,3.771c2.54,2.187,5.422,4.663,11.01,4.663s8.46-2.477,11-4.663c2.349-2.021,4.38-3.771,8.594-3.771s6.248,1.75,8.6,3.771c2.54,2.187,5.422,4.663,11.007,4.663s8.466-2.477,11.01-4.663c2.352-2.021,4.386-3.771,8.606-3.771s6.251,1.75,8.6,3.771c2.54,2.187,5.425,4.663,11.01,4.663s8.473-2.477,11.013-4.663c2.352-2.021,4.383-3.771,8.6-3.771s6.251,1.75,8.6,3.771c2.547,2.187,5.425,4.663,11.016,4.663s8.466-2.477,11.01-4.663c2.349-2.021,4.383-3.771,8.6-3.771s6.257,1.75,8.61,3.771c2.544,2.187,5.422,4.663,11.016,4.663S224.2,9.649,226.74,7.462c2.359-2.021,4.4-3.771,8.622-3.771s6.264,1.75,8.616,3.771c2.544,2.187,5.428,4.663,11.023,4.663V8.434c-4.223,0-6.26-1.75-8.616-3.771C243.844,2.477,240.962,0,235.365,0Z" transform="translate(0 22.737)"/>
        <path id="Path_2097" data-name="Path 2097" class="cls-3" d="M235.365,0c-5.594,0-8.479,2.474-11.026,4.66-2.352,2.024-4.389,3.771-8.613,3.771s-6.257-1.747-8.61-3.771C204.573,2.474,201.7,0,196.1,0a16.755,16.755,0,0,0-1.973.112c-4.326.5-6.812,2.636-9.034,4.552-2.349,2.021-4.383,3.768-8.6,3.768s-6.254-1.747-8.606-3.771C165.341,2.474,162.463,0,156.875,0s-8.469,2.474-11.01,4.66c-2.356,2.024-4.386,3.771-8.606,3.771S131,6.684,128.656,4.66C126.115,2.474,123.237,0,117.649,0a16.756,16.756,0,0,0-1.973.112c-4.329.5-6.812,2.636-9.037,4.552-2.352,2.021-4.383,3.768-8.6,3.768s-6.248-1.747-8.6-3.768C87.211,2.748,84.728.612,80.4.112a17.5,17.5,0,0,0-3.946,0c-4.325.5-6.809,2.636-9.03,4.552-2.349,2.021-4.38,3.768-8.594,3.768s-6.248-1.747-8.6-3.768C48.008,2.748,45.525.612,41.2.112a17.5,17.5,0,0,0-3.946,0c-4.329.5-6.812,2.636-9.034,4.552-2.352,2.021-4.383,3.768-8.6,3.768s-6.251-1.747-8.6-3.771C8.466,2.474,5.588,0,0,0V3.691c4.217,0,6.248,1.75,8.6,3.774A29.021,29.021,0,0,0,11.727,9.9a13.456,13.456,0,0,0,5.91,2.113,16.758,16.758,0,0,0,1.973.112,16.758,16.758,0,0,0,1.973-.112A13.456,13.456,0,0,0,27.493,9.9,28.627,28.627,0,0,0,30.62,7.465C32.972,5.441,35,3.691,39.22,3.691s6.248,1.75,8.6,3.774A29.024,29.024,0,0,0,50.947,9.9a13.441,13.441,0,0,0,5.91,2.113,16.758,16.758,0,0,0,1.973.112,16.757,16.757,0,0,0,1.973-.112,13.428,13.428,0,0,0,5.9-2.113A28.279,28.279,0,0,0,69.83,7.465c2.349-2.024,4.38-3.774,8.594-3.774s6.248,1.75,8.6,3.774A29.024,29.024,0,0,0,90.15,9.9a13.456,13.456,0,0,0,5.91,2.113,16.718,16.718,0,0,0,1.973.112,16.717,16.717,0,0,0,1.973-.112,13.82,13.82,0,0,0,7.032-2.9c.714-.539,1.371-1.1,2-1.648,2.352-2.024,4.386-3.774,8.606-3.774s6.251,1.75,8.6,3.774A29.022,29.022,0,0,0,129.376,9.9a13.486,13.486,0,0,0,5.91,2.113,16.759,16.759,0,0,0,1.973.112,16.758,16.758,0,0,0,1.973-.112,13.8,13.8,0,0,0,7.032-2.9c.717-.539,1.374-1.1,2.008-1.648,2.352-2.024,4.383-3.774,8.6-3.774s6.251,1.75,8.6,3.774a29.394,29.394,0,0,0,3.13,2.432,13.456,13.456,0,0,0,5.91,2.113,16.758,16.758,0,0,0,1.973.112,16.757,16.757,0,0,0,1.973-.112,13.471,13.471,0,0,0,5.91-2.113A28.325,28.325,0,0,0,187.5,7.465c2.349-2.024,4.383-3.774,8.6-3.774s6.257,1.75,8.61,3.774c.634.545,1.291,1.109,2.008,1.648a13.808,13.808,0,0,0,7.035,2.9,16.678,16.678,0,0,0,1.973.112,16.773,16.773,0,0,0,1.976-.112,13.8,13.8,0,0,0,7.032-2.9c.717-.539,1.374-1.1,2.008-1.648,2.359-2.024,4.4-3.774,8.622-3.774s6.264,1.75,8.616,3.774c.634.545,1.291,1.109,2.008,1.648a13.844,13.844,0,0,0,7.038,2.9,16.773,16.773,0,0,0,1.976.112V8.431c-4.223,0-6.26-1.747-8.616-3.771C243.844,2.474,240.962,0,235.365,0Z"/>
      </g>
    </g>
  </g>
</svg>
