<svg xmlns="http://www.w3.org/2000/svg" viewBox="0 0 268 72.524">
  <defs>
    <style>
      .cls-1 {
        fill: #ffc851;
      }
    </style>
  </defs>
  <path id="Subtraction_14" data-name="Subtraction 14" class="cls-1" d="M268,72.524h0c-7.018,0-10.642-3.11-13.839-5.853l-.022-.018-.012-.011c-2.958-2.542-5.513-4.737-10.818-4.737S235.455,64.1,232.5,66.637l0,0-.013.012,0,0c-3.2,2.75-6.823,5.867-13.856,5.867s-10.664-3.119-13.861-5.87l-.015-.013c-2.958-2.542-5.513-4.736-10.813-4.736s-7.852,2.2-10.808,4.739l-.01.009c-3.192,2.752-6.811,5.871-13.848,5.871S158.6,69.4,155.407,66.653l-.021-.018c-2.954-2.538-5.5-4.73-10.805-4.73s-7.858,2.194-10.815,4.734l-.016.013c-3.2,2.752-6.829,5.871-13.865,5.871s-10.658-3.119-13.855-5.87l0,0c-2.96-2.547-5.516-4.746-10.829-4.746s-7.854,2.191-10.813,4.73l-.022.018c-3.2,2.752-6.821,5.871-13.86,5.871s-10.654-3.114-13.852-5.861l-.013-.01-.009-.007C53.666,64.1,51.109,61.905,45.8,61.905s-7.865,2.2-10.825,4.746l0,0c-3.2,2.752-6.821,5.871-13.857,5.871S10.451,69.407,7.253,66.657l-.005,0C5,64.722,3.059,63.055,0,62.308v-4.75c4.784.845,7.7,3.354,10.276,5.566l0,0c2.964,2.547,5.524,4.747,10.84,4.747s7.862-2.2,10.823-4.746l0,0c3.2-2.75,6.823-5.867,13.857-5.867s10.658,3.114,13.857,5.862l.012.009.012.011c2.959,2.542,5.513,4.736,10.819,4.736s7.86-2.194,10.818-4.736l.012-.011c3.2-2.752,6.821-5.87,13.865-5.87s10.664,3.119,13.861,5.87c2.96,2.548,5.516,4.748,10.827,4.748s7.868-2.2,10.829-4.742l.007-.005c3.2-2.752,6.827-5.87,13.86-5.87s10.659,3.119,13.856,5.87l.013.012c2.959,2.542,5.513,4.736,10.815,4.736s7.854-2.2,10.81-4.74l.009-.007c3.2-2.752,6.821-5.87,13.848-5.87s10.663,3.119,13.86,5.87l.013.012c2.959,2.542,5.513,4.736,10.815,4.736s7.855-2.194,10.814-4.735l.012-.012.005,0c3.2-2.75,6.822-5.867,13.857-5.867s10.663,3.119,13.859,5.87l.015.012c2.958,2.542,5.511,4.736,10.814,4.736v4.647Zm0-28.633h0c-7.031,0-10.658-3.114-13.859-5.862l-.005,0c-2.961-2.547-5.518-4.747-10.831-4.747s-7.862,2.2-10.821,4.738l-.006,0c-2.772,2.39-5.914,5.1-11.373,5.73a22.1,22.1,0,0,1-4.968,0c-5.454-.631-8.6-3.34-11.376-5.73l-.006-.007c-2.959-2.542-5.515-4.737-10.821-4.737s-7.861,2.2-10.818,4.742c-2.772,2.39-5.915,5.1-11.37,5.732a21.2,21.2,0,0,1-2.484.14,20.932,20.932,0,0,1-2.484-.14c-5.452-.631-8.6-3.341-11.373-5.73l-.012-.011c-2.956-2.539-5.508-4.732-10.815-4.732s-7.863,2.194-10.822,4.735l-.008.007c-2.775,2.39-5.921,5.1-11.377,5.731a21.2,21.2,0,0,1-2.484.14c-7.041,0-10.662-3.117-13.857-5.867-2.958-2.547-5.512-4.747-10.831-4.747s-7.868,2.2-10.829,4.743l-.006,0c-3.194,2.75-6.815,5.867-13.86,5.867s-10.659-3.114-13.86-5.862l-.006-.005c-2.961-2.547-5.518-4.747-10.835-4.747s-7.868,2.2-10.827,4.743c-2.772,2.39-5.913,5.1-11.373,5.731a21.2,21.2,0,0,1-2.484.14c-7.046,0-10.671-3.117-13.869-5.867-2.15-1.85-4.18-3.6-7.248-4.347V28.93a17.452,17.452,0,0,1,7.754,3.487c.9.677,1.713,1.375,2.5,2.05l.029.025c2.965,2.549,5.524,4.751,10.84,4.751s7.864-2.2,10.823-4.751l.005,0a35.447,35.447,0,0,1,3.933-3.057,16.871,16.871,0,0,1,7.44-2.661,22.1,22.1,0,0,1,4.968,0,16.864,16.864,0,0,1,7.44,2.661,36.492,36.492,0,0,1,3.888,3.017l.053.045.006,0c2.962,2.547,5.517,4.746,10.825,4.746s7.867-2.2,10.826-4.746l0,0,.006,0,.034-.029c.786-.675,1.6-1.373,2.488-2.041a17.386,17.386,0,0,1,8.853-3.648,22.1,22.1,0,0,1,4.968,0,16.908,16.908,0,0,1,7.44,2.661,36.384,36.384,0,0,1,3.915,3.042l.013.011.009.009c2.959,2.549,5.515,4.751,10.827,4.751s7.872-2.2,10.835-4.751l.033-.028c.789-.677,1.6-1.376,2.492-2.047a17.391,17.391,0,0,1,8.852-3.648,22.112,22.112,0,0,1,4.969,0,16.859,16.859,0,0,1,7.44,2.661,36.279,36.279,0,0,1,3.927,3.054l.01.008.006.005c2.959,2.547,5.515,4.746,10.821,4.746s7.859-2.2,10.817-4.749l.02-.018a35.275,35.275,0,0,1,3.915-3.046,16.827,16.827,0,0,1,7.432-2.661,22.1,22.1,0,0,1,4.968,0,16.838,16.838,0,0,1,7.44,2.661,36.264,36.264,0,0,1,3.922,3.05l.015.012.006,0c2.959,2.547,5.515,4.746,10.821,4.746s7.862-2.2,10.821-4.746l0,0,.056-.047.008-.007a35.384,35.384,0,0,1,3.874-3.008,16.85,16.85,0,0,1,7.44-2.661,22.088,22.088,0,0,1,4.967,0,16.862,16.862,0,0,1,7.441,2.661,36.157,36.157,0,0,1,3.928,3.055l.009.007.007.006c2.958,2.546,5.513,4.744,10.82,4.744V43.89Zm0-28.625h0c-7.029,0-10.655-3.117-13.854-5.866l-.006,0-.012-.011c-2.958-2.541-5.512-4.736-10.818-4.736S235.452,6.842,232.5,9.383l-.015.012,0,0c-3.2,2.749-6.823,5.867-13.856,5.867S207.957,12.147,204.76,9.4l-.015-.013c-2.957-2.541-5.51-4.735-10.813-4.735s-7.852,2.2-10.809,4.739l-.01.009c-3.192,2.752-6.811,5.87-13.848,5.87s-10.66-3.119-13.857-5.87l-.021-.019c-2.954-2.538-5.5-4.728-10.805-4.728s-7.86,2.194-10.816,4.735l-.015.012c-3.2,2.752-6.829,5.87-13.865,5.87s-10.658-3.119-13.856-5.87l0,0c-2.96-2.546-5.515-4.744-10.829-4.744S87.34,6.839,84.382,9.377l-.021.018c-3.2,2.751-6.821,5.87-13.86,5.87S59.847,12.152,56.648,9.4l-.012-.009-.009-.008C53.667,6.844,51.11,4.648,45.8,4.648s-7.865,2.2-10.825,4.744l0,0c-3.2,2.752-6.821,5.87-13.857,5.87S10.451,12.148,7.253,9.4l-.005,0C5,7.464,3.06,5.8,0,5.049V.3c4.784.845,7.7,3.354,10.277,5.568l0,0c2.965,2.548,5.526,4.748,10.84,4.748s7.861-2.2,10.822-4.747l.005,0C35.148,3.117,38.774,0,45.8,0S56.463,3.114,59.663,5.862l.011.009.012.011C62.644,8.424,65.2,10.619,70.5,10.619s7.859-2.2,10.817-4.736l.013-.012C84.532,3.119,88.156,0,95.2,0s10.664,3.119,13.861,5.87c2.961,2.549,5.518,4.749,10.827,4.749s7.868-2.2,10.83-4.743l.006-.005c3.2-2.752,6.826-5.87,13.86-5.87s10.659,3.119,13.857,5.87l.012.011c2.958,2.542,5.512,4.737,10.815,4.737s7.854-2.2,10.811-4.742l.008-.007c3.2-2.752,6.821-5.87,13.848-5.87S204.6,3.119,207.8,5.87l.013.012c2.958,2.542,5.512,4.737,10.815,4.737s7.856-2.2,10.814-4.737l.012-.011.005,0C232.655,3.117,236.28,0,243.312,0s10.662,3.118,13.858,5.868l0,0,.013.011c2.958,2.542,5.513,4.737,10.814,4.737v4.646Z" transform="translate(268 72.524) rotate(180)"/>
</svg>
