<svg xmlns="http://www.w3.org/2000/svg" viewBox="0 0 172.002 70.277">
  <defs>
    <style>
      .cls-1 {
        fill: #ffc851;
      }
    </style>
  </defs>
  <path id="Subtraction_20" data-name="Subtraction 20" class="cls-1" d="M6566.372,8228.277c-6.8,0-10.31-3.012-13.407-5.668l-.025-.021-.01-.011c-2.868-2.464-5.345-4.591-10.484-4.591s-7.608,2.124-10.472,4.583l-.006.006-.015.013,0,0-.007.006c-3.1,2.662-6.608,5.679-13.419,5.679s-10.333-3.021-13.43-5.687l-.016-.014c-2.867-2.463-5.343-4.589-10.478-4.589s-7.606,2.126-10.47,4.588l-.014.014,0,0c-3.093,2.665-6.6,5.685-13.415,5.685s-10.328-3.021-13.426-5.687l-.022-.021c-2.86-2.459-5.331-4.582-10.469-4.582s-7.613,2.124-10.479,4.584l-.018.018c-3.1,2.666-6.618,5.688-13.436,5.688s-10.326-3.021-13.424-5.687h0l-.006,0c-2.866-2.468-5.341-4.6-10.492-4.6a13.65,13.65,0,0,0-4.551.706V8214a19.249,19.249,0,0,1,4.555-.518c6.823,0,10.333,3.022,13.43,5.689,2.867,2.468,5.343,4.6,10.493,4.6s7.625-2.129,10.494-4.595l.006,0c3.1-2.667,6.615-5.689,13.43-5.689s10.327,3.021,13.424,5.687l.017.014c2.866,2.462,5.341,4.588,10.48,4.588s7.61-2.127,10.473-4.591l.011-.008c3.1-2.667,6.611-5.689,13.419-5.689s10.328,3.021,13.425,5.686l0,0,.015.011c2.867,2.463,5.342,4.588,10.48,4.588s7.609-2.124,10.476-4.584l.015-.015,0,0,0,0c3.1-2.663,6.61-5.682,13.424-5.682s10.329,3.021,13.426,5.687l.019.014c2.864,2.462,5.337,4.588,10.478,4.588v4.5l0,0Zm0-27.747h0c-6.811,0-10.327-3.017-13.428-5.678l-.005-.008-.01-.009c-2.867-2.463-5.343-4.59-10.486-4.59s-7.619,2.128-10.486,4.593l-.006,0c-2.682,2.315-5.722,4.939-11.02,5.554a21.4,21.4,0,0,1-4.813,0c-5.289-.61-8.336-3.235-11.024-5.552l-.006-.006c-2.868-2.464-5.345-4.591-10.486-4.591s-7.619,2.129-10.482,4.595c-2.687,2.316-5.731,4.94-11.018,5.554a20.342,20.342,0,0,1-2.408.136,20.014,20.014,0,0,1-2.408-.136c-5.287-.61-8.333-3.236-11.02-5.554l-.011-.011c-2.863-2.46-5.336-4.584-10.482-4.584s-7.618,2.126-10.485,4.588l-.007.007c-2.687,2.317-5.734,4.943-11.026,5.554a20.328,20.328,0,0,1-2.408.136c-6.826,0-10.332-3.021-13.425-5.686-2.868-2.468-5.343-4.6-10.5-4.6a13.667,13.667,0,0,0-4.551.705v-4.692a17.479,17.479,0,0,1,2.143-.38,21.124,21.124,0,0,1,4.816,0,16.37,16.37,0,0,1,7.209,2.579,34.847,34.847,0,0,1,3.792,2.948l.015.01.008.009c2.866,2.47,5.34,4.6,10.49,4.6s7.631-2.133,10.5-4.6l.031-.027.032-.028.006-.005c.751-.645,1.529-1.312,2.375-1.952a16.864,16.864,0,0,1,8.579-3.533,21.1,21.1,0,0,1,4.813,0,16.3,16.3,0,0,1,7.209,2.579,34.433,34.433,0,0,1,3.764,2.921l.043.037.008.009.006,0c2.87,2.468,5.346,4.6,10.486,4.6s7.614-2.132,10.481-4.6l.02-.02.007-.006a34.034,34.034,0,0,1,3.787-2.943,16.309,16.309,0,0,1,7.2-2.579,21.1,21.1,0,0,1,4.813,0,16.294,16.294,0,0,1,7.209,2.579,34.794,34.794,0,0,1,3.8,2.952l.017.015.006,0c2.867,2.468,5.342,4.6,10.486,4.6s7.616-2.131,10.484-4.6l.006-.006.054-.046.006-.006.037-.032a34.23,34.23,0,0,1,3.718-2.883,16.3,16.3,0,0,1,7.209-2.579,21.1,21.1,0,0,1,4.813,0,16.318,16.318,0,0,1,7.211,2.579,34.876,34.876,0,0,1,3.8,2.958l.01.009.006.005c2.866,2.467,5.342,4.6,10.484,4.6v4.5Zm0-27.737c-6.81,0-10.322-3.018-13.421-5.681l0,0-.006,0-.01-.011-.007-.005c-2.866-2.46-5.339-4.585-10.478-4.585s-7.607,2.123-10.47,4.582l-.008.007-.015.013,0,0c-3.1,2.666-6.613,5.685-13.426,5.685s-10.333-3.022-13.432-5.689l-.015-.013c-2.865-2.462-5.339-4.588-10.478-4.588s-7.608,2.127-10.473,4.591l-.011.01,0,0c-3.092,2.665-6.6,5.685-13.415,5.685s-10.329-3.022-13.427-5.688l-.021-.02-.005,0c-2.86-2.457-5.33-4.578-10.464-4.578s-7.611,2.123-10.474,4.582l-.008.007-.015.013c-3.1,2.667-6.619,5.689-13.436,5.689s-10.327-3.022-13.425-5.689l0,0c-2.866-2.468-5.341-4.6-10.492-4.6a13.669,13.669,0,0,0-4.551.706v-4.692a19.285,19.285,0,0,1,4.555-.517c6.822,0,10.334,3.022,13.432,5.689,2.869,2.469,5.347,4.6,10.49,4.6s7.624-2.129,10.493-4.6l.008-.006c3.1-2.667,6.614-5.689,13.43-5.689s10.33,3.022,13.427,5.688l.014.011c2.866,2.464,5.34,4.591,10.48,4.591s7.612-2.129,10.476-4.595l.008-.006c3.1-2.667,6.609-5.689,13.419-5.689s10.329,3.02,13.426,5.685l.005,0,.013.01c2.863,2.463,5.336,4.591,10.48,4.591s7.611-2.127,10.477-4.59l.013-.011,0,0c3.1-2.665,6.615-5.685,13.428-5.685s10.333,3.021,13.428,5.687l.017.012c2.866,2.464,5.34,4.591,10.478,4.591v4.5l0,0Z" transform="translate(6566.374 8228.277) rotate(180)"/>
</svg>
