<svg xmlns="http://www.w3.org/2000/svg" viewBox="0 0 174.142 70.815">
  <defs>
    <style>
      .cls-1 {
        fill: #ffc851;
      }
    </style>
  </defs>
  <g id="Group_5063" data-name="Group 5063" transform="translate(182.142 38.399) rotate(180)">
    <path id="Path_2090" data-name="Path 2090" class="cls-1" d="M168.731,41.816c-3.82,0-5.79,1.691-7.529,3.185-1.606,1.38-3,2.575-5.882,2.575s-4.273-1.2-5.879-2.575c-1.737-1.493-3.7-3.185-7.523-3.185S136.136,43.507,134.4,45c-1.6,1.38-2.993,2.575-5.873,2.575s-4.271-1.2-5.877-2.575c-1.739-1.493-3.7-3.185-7.521-3.185s-5.784,1.691-7.519,3.185c-1.609,1.38-3,2.575-5.877,2.575s-4.271-1.2-5.875-2.575c-1.735-1.493-3.7-3.185-7.516-3.185S82.559,43.507,80.822,45c-1.606,1.38-2.993,2.575-5.875,2.575S70.68,46.381,69.074,45c-1.735-1.493-3.7-3.185-7.516-3.185S55.778,43.507,54.045,45c-1.6,1.38-2.991,2.575-5.869,2.575S43.91,46.381,42.3,45c-1.735-1.493-3.7-3.185-7.519-3.185S29,43.507,27.267,45c-1.606,1.38-2.993,2.575-5.873,2.575s-4.269-1.2-5.875-2.575c-1.737-1.491-3.7-3.185-7.519-3.185v2.521c2.88,0,4.266,1.2,5.873,2.575,1.735,1.493,3.7,3.185,7.519,3.185s5.782-1.691,7.519-3.185c1.606-1.38,2.993-2.575,5.873-2.575s4.266,1.2,5.873,2.575c1.735,1.493,3.7,3.185,7.519,3.185s5.777-1.691,7.512-3.185c1.6-1.38,2.991-2.575,5.869-2.575s4.266,1.2,5.873,2.575c1.735,1.493,3.7,3.185,7.516,3.185s5.782-1.691,7.519-3.185c1.606-1.38,3-2.575,5.877-2.575s4.269,1.2,5.873,2.575c1.735,1.493,3.7,3.185,7.519,3.185s5.786-1.691,7.521-3.185c1.606-1.38,2.993-2.575,5.875-2.575s4.269,1.2,5.875,2.575c1.739,1.493,3.7,3.185,7.523,3.185s5.782-1.691,7.519-3.185c1.6-1.38,2.993-2.575,5.871-2.575s4.273,1.2,5.879,2.575c1.737,1.493,3.7,3.185,7.523,3.185s5.788-1.691,7.523-3.185c1.611-1.38,3-2.575,5.888-2.575s4.277,1.2,5.884,2.575c1.739,1.493,3.709,3.185,7.529,3.185V47.576c-2.884,0-4.275-1.2-5.884-2.575C174.521,43.51,172.553,41.816,168.731,41.816Z" transform="translate(0 -58.286)"/>
    <path id="Path_2091" data-name="Path 2091" class="cls-1" d="M176.258,40.716c-1.737-1.493-3.7-3.182-7.527-3.182s-5.79,1.689-7.529,3.182c-1.606,1.382-3,2.575-5.882,2.575s-4.273-1.193-5.879-2.575c-1.737-1.493-3.7-3.182-7.523-3.182s-5.782,1.689-7.516,3.185c-1.6,1.38-2.993,2.573-5.873,2.573s-4.271-1.193-5.877-2.575c-1.739-1.493-3.7-3.182-7.521-3.182s-5.784,1.689-7.519,3.182c-1.609,1.382-3,2.575-5.877,2.575s-4.271-1.193-5.875-2.575c-1.735-1.493-3.7-3.182-7.516-3.182s-5.784,1.689-7.521,3.185c-1.606,1.38-2.993,2.573-5.875,2.573S70.68,42.1,69.074,40.719c-1.735-1.5-3.7-3.185-7.516-3.185s-5.779,1.689-7.512,3.185c-1.6,1.38-2.991,2.573-5.869,2.573S43.91,42.1,42.3,40.719c-1.735-1.5-3.7-3.185-7.519-3.185S29,39.223,27.267,40.719c-1.606,1.38-2.993,2.573-5.873,2.573s-4.269-1.193-5.875-2.575c-1.737-1.491-3.7-3.182-7.519-3.182v2.521c2.88,0,4.266,1.193,5.873,2.573,1.735,1.5,3.7,3.185,7.519,3.185s5.782-1.689,7.519-3.185c1.606-1.38,2.993-2.573,5.873-2.573s4.266,1.193,5.873,2.573c1.735,1.5,3.7,3.185,7.519,3.185s5.777-1.689,7.512-3.185c1.6-1.38,2.991-2.573,5.869-2.573s4.266,1.193,5.873,2.573c1.735,1.5,3.7,3.185,7.516,3.185s5.782-1.689,7.519-3.182c1.606-1.382,3-2.575,5.877-2.575s4.269,1.193,5.873,2.573c1.735,1.5,3.7,3.185,7.519,3.185s5.786-1.689,7.521-3.182c1.606-1.382,2.993-2.575,5.875-2.575S119.4,41.248,121,42.628c1.739,1.5,3.7,3.185,7.523,3.185s5.782-1.689,7.519-3.185c1.6-1.38,2.993-2.573,5.871-2.573s4.273,1.193,5.879,2.575c1.737,1.493,3.7,3.182,7.523,3.182s5.788-1.689,7.523-3.182c1.611-1.382,3-2.575,5.888-2.575s4.277,1.193,5.884,2.575c1.737,1.493,3.707,3.182,7.527,3.182V43.292C179.258,43.292,177.867,42.1,176.258,40.716Z" transform="translate(0 -69.951)"/>
    <path id="Path_2092" data-name="Path 2092" class="cls-1" d="M168.731,54.663c-3.82,0-5.79,1.691-7.529,3.185-1.606,1.382-3,2.573-5.882,2.573s-4.273-1.191-5.879-2.573c-1.737-1.493-3.7-3.185-7.523-3.185s-5.782,1.691-7.516,3.185c-1.6,1.382-2.993,2.573-5.873,2.573s-4.271-1.191-5.877-2.573c-1.739-1.493-3.7-3.185-7.521-3.185s-5.784,1.691-7.519,3.185c-1.609,1.382-3,2.573-5.877,2.573s-4.271-1.191-5.875-2.573c-1.735-1.493-3.7-3.185-7.516-3.185s-5.784,1.691-7.521,3.185c-1.606,1.382-2.993,2.573-5.875,2.573s-4.266-1.191-5.873-2.573c-1.735-1.493-3.7-3.185-7.516-3.185s-5.779,1.691-7.512,3.185c-1.6,1.382-2.991,2.573-5.869,2.573S43.91,59.23,42.3,57.848c-1.735-1.493-3.7-3.185-7.519-3.185S29,56.354,27.267,57.848c-1.606,1.382-2.993,2.573-5.873,2.573s-4.269-1.191-5.875-2.573c-1.737-1.493-3.7-3.185-7.519-3.185v2.521c2.88,0,4.266,1.2,5.873,2.577,1.735,1.489,3.7,3.18,7.519,3.18s5.782-1.691,7.519-3.18c1.606-1.382,2.993-2.577,5.873-2.577s4.266,1.2,5.873,2.577c1.735,1.489,3.7,3.18,7.519,3.18s5.777-1.691,7.512-3.18c1.6-1.382,2.991-2.577,5.869-2.577s4.266,1.2,5.873,2.577c1.735,1.489,3.7,3.18,7.516,3.18s5.782-1.691,7.519-3.18c1.606-1.382,3-2.577,5.877-2.577s4.269,1.2,5.873,2.577c1.735,1.489,3.7,3.18,7.519,3.18s5.786-1.691,7.521-3.18c1.606-1.382,2.993-2.577,5.875-2.577s4.269,1.2,5.875,2.577c1.739,1.489,3.7,3.18,7.523,3.18s5.782-1.691,7.519-3.18c1.6-1.382,2.993-2.577,5.871-2.577s4.273,1.2,5.879,2.577c1.737,1.489,3.7,3.18,7.523,3.18s5.788-1.691,7.523-3.18c1.611-1.382,3-2.577,5.888-2.577s4.277,1.2,5.884,2.577c1.737,1.489,3.707,3.18,7.527,3.18V60.421c-2.884,0-4.275-1.191-5.884-2.573C174.521,56.354,172.553,54.663,168.731,54.663Z" transform="translate(0 -24.542)"/>
    <path id="Path_2093" data-name="Path 2093" class="cls-1" d="M168.731,50.381c-3.82,0-5.79,1.691-7.529,3.185-1.606,1.38-3,2.575-5.882,2.575s-4.273-1.2-5.879-2.575c-1.737-1.493-3.7-3.185-7.523-3.185s-5.782,1.691-7.516,3.185c-1.6,1.38-2.993,2.575-5.873,2.575s-4.271-1.2-5.877-2.575c-1.739-1.493-3.7-3.185-7.521-3.185s-5.784,1.691-7.519,3.185c-1.609,1.38-3,2.575-5.877,2.575s-4.271-1.2-5.875-2.575c-1.735-1.493-3.7-3.185-7.516-3.185s-5.784,1.691-7.521,3.185c-1.606,1.38-2.993,2.575-5.875,2.575s-4.266-1.2-5.873-2.575c-1.735-1.493-3.7-3.185-7.516-3.185s-5.779,1.691-7.512,3.185c-1.6,1.38-2.991,2.575-5.869,2.575s-4.266-1.2-5.873-2.575c-1.735-1.493-3.7-3.185-7.519-3.185S29,52.072,27.267,53.566c-1.606,1.38-2.993,2.575-5.873,2.575s-4.269-1.2-5.875-2.575c-1.737-1.493-3.7-3.185-7.519-3.185V52.9c2.88,0,4.266,1.2,5.873,2.575,1.735,1.493,3.7,3.185,7.519,3.185s5.782-1.691,7.519-3.185C30.517,54.1,31.9,52.9,34.783,52.9s4.266,1.2,5.873,2.575c1.735,1.493,3.7,3.185,7.519,3.185s5.777-1.691,7.512-3.185c1.6-1.38,2.991-2.575,5.869-2.575s4.266,1.2,5.873,2.575c1.735,1.493,3.7,3.185,7.516,3.185s5.782-1.691,7.519-3.185c1.606-1.38,3-2.575,5.877-2.575s4.269,1.2,5.873,2.575c1.735,1.493,3.7,3.185,7.519,3.185s5.786-1.691,7.521-3.185c1.606-1.38,2.993-2.575,5.875-2.575S119.4,54.1,121,55.477c1.739,1.493,3.7,3.185,7.523,3.185s5.782-1.691,7.519-3.185c1.6-1.38,2.993-2.575,5.871-2.575s4.273,1.2,5.879,2.575c1.737,1.493,3.7,3.185,7.523,3.185s5.788-1.691,7.523-3.185c1.611-1.38,3-2.575,5.888-2.575s4.277,1.2,5.884,2.575c1.737,1.493,3.707,3.185,7.527,3.185V56.141c-2.884,0-4.275-1.2-5.884-2.575C174.521,52.072,172.553,50.381,168.731,50.381Z" transform="translate(0 -35.792)"/>
    <path id="Path_2094" data-name="Path 2094" class="cls-1" d="M168.731,46.1c-3.82,0-5.79,1.689-7.529,3.182-1.606,1.382-3,2.575-5.882,2.575s-4.273-1.193-5.879-2.575c-1.737-1.493-3.7-3.182-7.523-3.182a11.443,11.443,0,0,0-1.347.076,10.735,10.735,0,0,0-6.169,3.108c-1.6,1.38-2.993,2.573-5.873,2.573s-4.271-1.193-5.877-2.575c-1.739-1.493-3.7-3.182-7.521-3.182s-5.784,1.689-7.519,3.182c-1.609,1.382-3,2.575-5.877,2.575s-4.271-1.193-5.875-2.575c-1.735-1.493-3.7-3.182-7.516-3.182A11.443,11.443,0,0,0,87,46.175a10.742,10.742,0,0,0-6.171,3.108c-1.606,1.38-2.993,2.573-5.875,2.573s-4.266-1.193-5.873-2.573a10.742,10.742,0,0,0-6.169-3.108,11.953,11.953,0,0,0-2.695,0,10.728,10.728,0,0,0-6.167,3.108c-1.6,1.38-2.991,2.573-5.869,2.573S43.91,50.664,42.3,49.284a10.742,10.742,0,0,0-6.171-3.108,11.953,11.953,0,0,0-2.695,0,10.728,10.728,0,0,0-6.169,3.108c-1.606,1.38-2.993,2.573-5.873,2.573s-4.269-1.193-5.875-2.575C13.782,47.788,11.816,46.1,8,46.1V48.62c2.88,0,4.266,1.2,5.873,2.577a19.819,19.819,0,0,0,2.135,1.661A9.189,9.189,0,0,0,20.044,54.3a11.953,11.953,0,0,0,2.695,0,9.189,9.189,0,0,0,4.036-1.443A19.549,19.549,0,0,0,28.91,51.2c1.606-1.382,2.993-2.577,5.873-2.577s4.266,1.2,5.873,2.577a19.82,19.82,0,0,0,2.135,1.661A9.179,9.179,0,0,0,46.827,54.3a11.953,11.953,0,0,0,2.695,0,9.17,9.17,0,0,0,4.031-1.443A19.31,19.31,0,0,0,55.687,51.2c1.6-1.382,2.991-2.577,5.869-2.577s4.266,1.2,5.873,2.577a19.819,19.819,0,0,0,2.135,1.661A9.189,9.189,0,0,0,73.6,54.3a11.953,11.953,0,0,0,2.695,0,9.438,9.438,0,0,0,4.8-1.979c.488-.368.936-.753,1.369-1.125,1.606-1.382,3-2.577,5.877-2.577s4.269,1.2,5.873,2.577a19.819,19.819,0,0,0,2.135,1.661,9.209,9.209,0,0,0,4.036,1.443,11.953,11.953,0,0,0,2.695,0,9.421,9.421,0,0,0,4.8-1.979c.49-.368.938-.753,1.371-1.125,1.606-1.382,2.993-2.577,5.875-2.577s4.269,1.2,5.875,2.577a20.073,20.073,0,0,0,2.138,1.661,9.189,9.189,0,0,0,4.036,1.443,11.953,11.953,0,0,0,2.695,0,9.2,9.2,0,0,0,4.036-1.443,19.345,19.345,0,0,0,2.135-1.661c1.6-1.382,2.993-2.577,5.871-2.577s4.273,1.2,5.879,2.577c.433.372.882.758,1.371,1.125a9.429,9.429,0,0,0,4.8,1.979,11.973,11.973,0,0,0,2.7,0,9.421,9.421,0,0,0,4.8-1.979c.49-.368.938-.753,1.371-1.125,1.611-1.382,3-2.577,5.888-2.577s4.277,1.2,5.884,2.577c.433.372.882.758,1.371,1.125A9.454,9.454,0,0,0,180.79,54.3a11.454,11.454,0,0,0,1.35.076V51.857c-2.884,0-4.275-1.193-5.884-2.575C174.521,47.788,172.553,46.1,168.731,46.1Z" transform="translate(0 -47.037)"/>
  </g>
</svg>
